<svg width="24" height="24" viewBox="0 0 24 24" fill="none" xmlns="http://www.w3.org/2000/svg">
	<path d="M7.69733 11.9854V4.60159H12.1326C13.6307 4.60159 14.6202 5.47893 14.6202 6.81016C14.6202 8.32265 13.3318 9.47261 10.6948 10.3499C8.89656 10.9243 8.08786 11.4086 7.78774 11.9842L7.69733 11.9854ZM7.69733 19.3984V16.3125C7.69733 14.9509 8.83628 13.6196 10.4248 13.1049C11.8337 12.6206 13.0016 12.1363 13.9911 11.6228C15.3096 12.4102 16.1183 13.7705 16.1183 15.193C16.1183 17.6133 13.8404 19.3984 10.7538 19.3984H7.69733ZM5 22H10.9936C15.5495 22 18.9651 19.1259 18.9651 15.3135C18.9651 13.2253 17.9165 11.3502 16.058 10.1395C17.0174 9.17084 17.467 8.05135 17.467 6.68969C17.467 3.87639 15.4591 2 12.4327 2H5V22Z" fill="#323232"/>
</svg>
